<svg xmlns="http://www.w3.org/2000/svg" viewBox="-29.3 62.5 98.2 61.8" enable-background="new -29.3 62.5 98.2 61.8" width="98.2" height="61.8"><path fill="#E90B16" d="M57.6 89.4c-1.8-9.1-9.8-16-19.6-16-3.3 0-6.2.7-8.7 2.2-4.4-7.6-12.8-13.1-22.2-13.1-14.2 0-25.5 11.3-25.5 25.5v1.5c-6.5 2.9-10.9 9.1-10.9 16.7 0 10.2 8 18.2 18.2 18.2h61.8c10.2 0 18.2-8 18.2-18.2 0-7.7-4.8-13.9-11.3-16.8z"/><path fill="#fff" d="M11.1 113.4h5.8v-20.3h7.6v13.5c0 4.7 1.5 7.6 6.2 7.6 1.5 0 2.5-.4 3.3-.7l-.7-4.4c-.4.4-.7.4-1.1.4-1.1 0-1.8-.7-1.8-2.5v-13.9h4v-5.5h-27.7v5.5h4.4v20.3z"/></svg>
