<?xml version="1.0" encoding="utf-8"?>
<!-- Generated by IcoMoon.io -->
<!DOCTYPE svg PUBLIC "-//W3C//DTD SVG 1.1//EN" "http://www.w3.org/Graphics/SVG/1.1/DTD/svg11.dtd">
<svg version="1.1" xmlns="http://www.w3.org/2000/svg" xmlns:xlink="http://www.w3.org/1999/xlink" width="48" height="48" viewBox="0 0 48 48">
<g id="icomoon-ignore">
</g>
<path d="M24 2q4.484 0 8.555 1.742t7.016 4.687 4.688 7.016 1.742 8.555-1.742 8.555-4.688 7.016-7.016 4.688-8.555 1.742-8.555-1.742-7.016-4.688-4.688-7.016-1.742-8.555 1.742-8.555 4.688-7.016 7.016-4.688 8.555-1.742zM24 6q-3.656 0-6.992 1.43t-5.742 3.836-3.836 5.742-1.43 6.992 1.43 6.992 3.836 5.742 5.742 3.836 6.992 1.43 6.992-1.43 5.742-3.836 3.836-5.742 1.43-6.992-1.43-6.992-3.836-5.742-5.742-3.836-6.992-1.43zM24 10q0.828 0 1.414 0.586t0.586 1.414v11.172l5.422 5.406q0.578 0.578 0.578 1.422t-0.578 1.422-1.422 0.578-1.422-0.578l-6-6q-0.578-0.578-0.578-1.422v-12q0-0.828 0.586-1.414t1.414-0.586z" fill="#000000"></path>
</svg>
