<?xml version="1.0" encoding="utf-8"?>
<!-- Generated by IcoMoon.io -->
<!DOCTYPE svg PUBLIC "-//W3C//DTD SVG 1.1//EN" "http://www.w3.org/Graphics/SVG/1.1/DTD/svg11.dtd">
<svg version="1.1" xmlns="http://www.w3.org/2000/svg" xmlns:xlink="http://www.w3.org/1999/xlink" width="48" height="48" viewBox="0 0 48 48">
<g id="icomoon-ignore">
</g>
<path d="M30 4q3.656 0 6.992 1.43t5.742 3.836 3.836 5.742 1.43 6.992q0 3.406-1.242 6.547t-3.375 5.5-5.094 3.914-6.289 1.93v-4.031q3.359-0.484 6.102-2.43t4.32-4.953 1.578-6.477q0-2.844-1.109-5.438t-2.984-4.469-4.469-2.984-5.438-1.109q-2.594 0-4.992 0.93t-4.219 2.523-3.047 3.812-1.586 4.734h-4.156q-3.313 0-5.656 2.344t-2.344 5.656q0 1.813 0.711 3.359t1.867 2.539 2.57 1.547 2.852 0.555h8v4h-8q-3.266 0-6.023-1.609t-4.367-4.367-1.609-6.023 1.609-6.023 4.367-4.367 6.023-1.609h1.031q1.234-3.484 3.719-6.195t5.945-4.258 7.305-1.547zM26 20q0.828 0 1.422 0.594l6 6q0.578 0.578 0.578 1.406 0 0.859-0.57 1.43t-1.43 0.57q-0.844 0-1.422-0.578l-2.578-2.594v13.172q0 0.828-0.586 1.414t-1.414 0.586-1.414-0.586-0.586-1.414v-13.172l-2.578 2.594q-0.578 0.578-1.422 0.578-0.828 0-1.414-0.586t-0.586-1.414q0-0.797 0.578-1.406l6-6q0.594-0.594 1.422-0.594z" fill="#000000"></path>
</svg>
