<?xml version="1.0" encoding="utf-8"?>
<!-- Generated by IcoMoon.io -->
<!DOCTYPE svg PUBLIC "-//W3C//DTD SVG 1.1//EN" "http://www.w3.org/Graphics/SVG/1.1/DTD/svg11.dtd">
<svg version="1.1" xmlns="http://www.w3.org/2000/svg" xmlns:xlink="http://www.w3.org/1999/xlink" width="48" height="48" viewBox="0 0 48 48">
<g id="icomoon-ignore">
</g>
<path d="M24 6q3.266 0 6.352 0.992t5.414 2.578 4.383 3.508 3.453 3.844 2.422 3.508 1.508 2.57l0.469 1q-0.109 0.234-0.297 0.633t-0.883 1.625-1.484 2.422-2.078 2.813-2.664 3.016-3.258 2.82-3.859 2.414-4.445 1.625-5.031 0.633q-3.266 0-6.352-0.992t-5.414-2.57-4.383-3.484-3.453-3.82-2.422-3.492-1.508-2.578l-0.469-0.984q0.109-0.234 0.297-0.633t0.883-1.633 1.484-2.43 2.078-2.828 2.664-3.031 3.258-2.828 3.859-2.43 4.445-1.633 5.031-0.633zM24 10q-2.188 0-4.297 0.578t-3.805 1.492-3.313 2.211-2.797 2.555-2.289 2.703-1.766 2.477-1.234 2.063q0.578 1.016 1.234 2.039t1.766 2.453 2.289 2.672 2.797 2.523 3.313 2.188 3.805 1.477 4.297 0.57 4.297-0.578 3.805-1.484 3.313-2.195 2.797-2.539 2.289-2.687 1.766-2.469 1.234-2.047q-0.578-1.016-1.234-2.047t-1.766-2.469-2.289-2.687-2.797-2.539-3.313-2.195-3.805-1.484-4.297-0.578zM24 16q3.313 0 5.656 2.344t2.344 5.656-2.344 5.656-5.656 2.344-5.656-2.344-2.344-5.656 2.344-5.656 5.656-2.344zM24 20q-1.656 0-2.828 1.172t-1.172 2.828 1.172 2.828 2.828 1.172 2.828-1.172 1.172-2.828-1.172-2.828-2.828-1.172z" fill="#000000"></path>
</svg>
