<?xml version="1.0" encoding="utf-8"?>
<!-- Generated by IcoMoon.io -->
<!DOCTYPE svg PUBLIC "-//W3C//DTD SVG 1.1//EN" "http://www.w3.org/Graphics/SVG/1.1/DTD/svg11.dtd">
<svg version="1.1" xmlns="http://www.w3.org/2000/svg" xmlns:xlink="http://www.w3.org/1999/xlink" width="48" height="48" viewBox="0 0 48 48">
<g id="icomoon-ignore">
</g>
<path d="M34 2q2.359 0 4.555 0.891t3.93 2.625 2.625 3.93 0.891 4.555q0 2.344-0.898 4.555t-2.617 3.93l-6 6q-0.172 0.172-0.516 0.484-1.672 1.484-3.734 2.258t-4.234 0.773q-2.734 0-5.172-1.172-1.828-0.859-3.313-2.344t-2.344-3.313q1.172-1.172 2.828-1.172 0.578 0 1.172 0.172 1.016 1.641 2.656 2.656 1.922 1.172 4.172 1.172 1.562 0 3.031-0.594t2.625-1.75l6-6q1.156-1.156 1.75-2.625t0.594-3.031-0.594-3.031-1.75-2.625-2.625-1.75-3.031-0.594-3.031 0.594-2.625 1.75l-4.203 4.203q-2-0.547-4.141-0.547-0.344 0-0.969 0.031 0.313-0.344 0.484-0.516l6-6q1.719-1.719 3.93-2.617t4.555-0.898zM20 16q2.734 0 5.172 1.172 1.828 0.859 3.313 2.344t2.344 3.313q-1.172 1.172-2.828 1.172-0.578 0-1.172-0.172-1.016-1.641-2.656-2.656-1.922-1.172-4.172-1.172-1.562 0-3.031 0.594t-2.625 1.75l-6 6q-1.156 1.156-1.75 2.625t-0.594 3.031 0.594 3.031 1.75 2.625 2.625 1.75 3.031 0.594 3.031-0.594 2.625-1.75l4.203-4.203q2 0.547 4.141 0.547 0.344 0 0.969-0.031-0.313 0.344-0.484 0.516l-6 6q-1.734 1.734-3.93 2.625t-4.555 0.891q-2.344 0-4.555-0.898t-3.93-2.617q-1.734-1.734-2.625-3.93t-0.891-4.555 0.891-4.555 2.625-3.93l6-6q0.172-0.172 0.516-0.484 1.672-1.484 3.734-2.258t4.234-0.773z" fill="#000000"></path>
</svg>
