<?xml version="1.0" encoding="utf-8"?>
<!-- Generated by IcoMoon.io -->
<!DOCTYPE svg PUBLIC "-//W3C//DTD SVG 1.1//EN" "http://www.w3.org/Graphics/SVG/1.1/DTD/svg11.dtd">
<svg version="1.1" xmlns="http://www.w3.org/2000/svg" xmlns:xlink="http://www.w3.org/1999/xlink" width="48" height="48" viewBox="0 0 48 48">
<g id="icomoon-ignore">
</g>
<path d="M10 0h20l14 14v28q0 2.484-1.758 4.242t-4.242 1.758h-28q-2.484 0-4.242-1.758t-1.758-4.242v-36q0-2.484 1.758-4.242t4.242-1.758zM26 18v-14h-16q-0.844 0-1.422 0.578t-0.578 1.422v36q0 0.844 0.578 1.422t1.422 0.578h28q0.844 0 1.422-0.578t0.578-1.422v-24h-14zM38.344 14l-8.344-8.344v8.344h8.344z" fill="#000000"></path>
</svg>
