<?xml version="1.0" encoding="utf-8"?>
<!-- Generated by IcoMoon.io -->
<!DOCTYPE svg PUBLIC "-//W3C//DTD SVG 1.1//EN" "http://www.w3.org/Graphics/SVG/1.1/DTD/svg11.dtd">
<svg version="1.1" xmlns="http://www.w3.org/2000/svg" xmlns:xlink="http://www.w3.org/1999/xlink" width="48" height="48" viewBox="0 0 48 48">
<g id="icomoon-ignore">
</g>
<path d="M24 2q4.313 0 8.359 1.641t7.203 4.797 4.797 7.203 1.641 8.359-1.641 8.359-4.797 7.203-7.203 4.797-8.359 1.641-8.359-1.641-7.203-4.797-4.797-7.203-1.641-8.359 1.641-8.359 4.797-7.203 7.203-4.797 8.359-1.641zM15.656 18.484l-5.719-5.719q-1.937 2.422-2.938 5.312t-1 5.922 1 5.922 2.938 5.312l5.719-5.719q-1.656-2.5-1.656-5.516t1.656-5.516zM35.234 38.063l-5.719-5.719q-2.5 1.656-5.516 1.656t-5.516-1.656l-5.719 5.719q2.422 1.937 5.312 2.938t5.922 1 5.922-1 5.312-2.938zM24 18q-2.484 0-4.242 1.758t-1.758 4.242 1.758 4.242 4.242 1.758 4.242-1.758 1.758-4.242-1.758-4.242-4.242-1.758zM24 6q-3.031 0-5.922 1t-5.312 2.938l5.719 5.719q2.5-1.656 5.516-1.656t5.516 1.656l5.719-5.719q-2.422-1.937-5.312-2.938t-5.922-1zM38.063 12.766l-5.719 5.719q1.656 2.5 1.656 5.516t-1.656 5.516l5.719 5.719q1.937-2.422 2.938-5.312t1-5.922-1-5.922-2.938-5.312z" fill="#000000"></path>
</svg>
