<?xml version="1.0" encoding="utf-8"?>
<!-- Generated by IcoMoon.io -->
<!DOCTYPE svg PUBLIC "-//W3C//DTD SVG 1.1//EN" "http://www.w3.org/Graphics/SVG/1.1/DTD/svg11.dtd">
<svg version="1.1" xmlns="http://www.w3.org/2000/svg" xmlns:xlink="http://www.w3.org/1999/xlink" width="48" height="48" viewBox="0 0 48 48">
<g id="icomoon-ignore">
</g>
<path d="M22 2h18q2.484 0 4.242 1.758t1.758 4.242v18q0 2.484-1.758 4.242t-4.242 1.758h-8v8q0 2.484-1.758 4.242t-4.242 1.758h-18q-2.484 0-4.242-1.758t-1.758-4.242v-18q0-2.484 1.758-4.242t4.242-1.758h8v-8q0-2.484 1.758-4.242t4.242-1.758zM16 26v-6h-8q-0.828 0-1.414 0.586t-0.586 1.414v18q0 0.828 0.586 1.414t1.414 0.586h18q0.828 0 1.414-0.586t0.586-1.414v-8h-6q-2.484 0-4.242-1.758t-1.758-4.242zM40 6h-18q-0.828 0-1.414 0.586t-0.586 1.414v18q0 0.828 0.586 1.414t1.414 0.586h18q0.828 0 1.414-0.586t0.586-1.414v-18q0-0.828-0.586-1.414t-1.414-0.586z" fill="#000000"></path>
</svg>
